<?xml version="1.0" encoding="UTF-8" standalone="no"?>
<!DOCTYPE svg PUBLIC "-//W3C//DTD SVG 1.1//EN"
 "http://www.w3.org/Graphics/SVG/1.1/DTD/svg11.dtd">
<!-- Generated by graphviz version 2.40.1 (20161225.0304)
 -->
<!-- Title: Sample Search Space Pages: 1 -->
<svg width="566pt" height="495pt"
 viewBox="0.00 0.00 566.00 494.70" xmlns="http://www.w3.org/2000/svg" xmlns:xlink="http://www.w3.org/1999/xlink">
<g id="graph0" class="graph" transform="scale(1 1) rotate(0) translate(4 490.7006)">
<title>Sample Search Space</title>
<polygon fill="#ffffff" stroke="transparent" points="-4,4 -4,-490.7006 562,-490.7006 562,4 -4,4"/>
<!-- A -->
<g id="node1" class="node">
<title>A</title>
<ellipse fill="none" stroke="#000000" cx="207" cy="-459.8305" rx="27" ry="26.7407"/>
<text text-anchor="middle" x="207" y="-463.6305" font-family="Times,serif" font-size="14.00" fill="#000000">A</text>
<text text-anchor="middle" x="207" y="-448.6305" font-family="Times,serif" font-size="14.00" fill="#000000">3</text>
</g>
<!-- B -->
<g id="node2" class="node">
<title>B</title>
<ellipse fill="none" stroke="#000000" cx="135" cy="-370.0904" rx="27" ry="26.7407"/>
<text text-anchor="middle" x="135" y="-373.8904" font-family="Times,serif" font-size="14.00" fill="#000000">B</text>
<text text-anchor="middle" x="135" y="-358.8904" font-family="Times,serif" font-size="14.00" fill="#000000">2</text>
</g>
<!-- A&#45;&gt;B -->
<g id="edge1" class="edge">
<title>A&#45;&gt;B</title>
<path fill="none" stroke="#000000" d="M189.937,-438.5634C180.522,-426.8285 168.6912,-412.0828 158.4221,-399.2835"/>
<polygon fill="#000000" stroke="#000000" points="160.9285,-396.8145 151.9405,-391.2049 155.4686,-401.1951 160.9285,-396.8145"/>
</g>
<!-- C -->
<g id="node3" class="node">
<title>C</title>
<ellipse fill="none" stroke="#000000" cx="351" cy="-370.0904" rx="27" ry="26.7407"/>
<text text-anchor="middle" x="351" y="-373.8904" font-family="Times,serif" font-size="14.00" fill="#000000">C</text>
<text text-anchor="middle" x="351" y="-358.8904" font-family="Times,serif" font-size="14.00" fill="#000000">3</text>
</g>
<!-- A&#45;&gt;C -->
<g id="edge2" class="edge">
<title>A&#45;&gt;C</title>
<path fill="none" stroke="#000000" d="M230.1361,-445.4122C254.2789,-430.3666 292.3004,-406.6717 319.2445,-389.8803"/>
<polygon fill="#000000" stroke="#000000" points="321.2856,-392.7323 327.9213,-384.4729 317.5833,-386.7915 321.2856,-392.7323"/>
</g>
<!-- D -->
<g id="node4" class="node">
<title>D</title>
<ellipse fill="none" stroke="#000000" cx="27" cy="-280.3503" rx="27" ry="26.7407"/>
<text text-anchor="middle" x="27" y="-284.1503" font-family="Times,serif" font-size="14.00" fill="#000000">D</text>
<text text-anchor="middle" x="27" y="-269.1503" font-family="Times,serif" font-size="14.00" fill="#000000">3</text>
</g>
<!-- B&#45;&gt;D -->
<g id="edge3" class="edge">
<title>B&#45;&gt;D</title>
<path fill="none" stroke="#000000" d="M114.1765,-352.7876C97.5921,-339.0072 74.1914,-319.5629 55.8096,-304.2889"/>
<polygon fill="#000000" stroke="#000000" points="57.6877,-301.299 47.7596,-297.6 53.2141,-306.6829 57.6877,-301.299"/>
</g>
<!-- E -->
<g id="node5" class="node">
<title>E</title>
<ellipse fill="none" stroke="#000000" cx="99" cy="-280.3503" rx="27" ry="26.7407"/>
<text text-anchor="middle" x="99" y="-284.1503" font-family="Times,serif" font-size="14.00" fill="#000000">E</text>
<text text-anchor="middle" x="99" y="-269.1503" font-family="Times,serif" font-size="14.00" fill="#000000">1</text>
</g>
<!-- B&#45;&gt;E -->
<g id="edge4" class="edge">
<title>B&#45;&gt;E</title>
<path fill="none" stroke="#000000" d="M124.972,-345.0928C121.2196,-335.739 116.8881,-324.9413 112.851,-314.8777"/>
<polygon fill="#000000" stroke="#000000" points="116.0707,-313.503 109.0991,-305.5251 109.574,-316.1093 116.0707,-313.503"/>
</g>
<!-- F -->
<g id="node6" class="node">
<title>F</title>
<ellipse fill="none" stroke="#000000" cx="171" cy="-280.3503" rx="27" ry="26.7407"/>
<text text-anchor="middle" x="171" y="-284.1503" font-family="Times,serif" font-size="14.00" fill="#000000">F</text>
<text text-anchor="middle" x="171" y="-269.1503" font-family="Times,serif" font-size="14.00" fill="#000000">7</text>
</g>
<!-- B&#45;&gt;F -->
<g id="edge5" class="edge">
<title>B&#45;&gt;F</title>
<path fill="none" stroke="#000000" d="M145.028,-345.0928C148.7804,-335.739 153.1119,-324.9413 157.149,-314.8777"/>
<polygon fill="#000000" stroke="#000000" points="160.426,-316.1093 160.9009,-305.5251 153.9293,-313.503 160.426,-316.1093"/>
</g>
<!-- G -->
<g id="node7" class="node">
<title>G</title>
<ellipse fill="none" stroke="#000000" cx="351" cy="-280.3503" rx="27" ry="26.7407"/>
<text text-anchor="middle" x="351" y="-284.1503" font-family="Times,serif" font-size="14.00" fill="#000000">G</text>
<text text-anchor="middle" x="351" y="-269.1503" font-family="Times,serif" font-size="14.00" fill="#000000">6</text>
</g>
<!-- C&#45;&gt;G -->
<g id="edge6" class="edge">
<title>C&#45;&gt;G</title>
<path fill="none" stroke="#000000" d="M351,-343.1654C351,-335.0905 351,-326.0872 351,-317.4763"/>
<polygon fill="#000000" stroke="#000000" points="354.5001,-317.2562 351,-307.2563 347.5001,-317.2563 354.5001,-317.2562"/>
</g>
<!-- H -->
<g id="node8" class="node">
<title>H</title>
<ellipse fill="none" stroke="#000000" cx="459" cy="-280.3503" rx="27" ry="26.7407"/>
<text text-anchor="middle" x="459" y="-284.1503" font-family="Times,serif" font-size="14.00" fill="#000000">H</text>
<text text-anchor="middle" x="459" y="-269.1503" font-family="Times,serif" font-size="14.00" fill="#000000">2</text>
</g>
<!-- C&#45;&gt;H -->
<g id="edge7" class="edge">
<title>C&#45;&gt;H</title>
<path fill="none" stroke="#000000" d="M371.8235,-352.7876C388.4079,-339.0072 411.8086,-319.5629 430.1904,-304.2889"/>
<polygon fill="#000000" stroke="#000000" points="432.7859,-306.6829 438.2404,-297.6 428.3123,-301.299 432.7859,-306.6829"/>
</g>
<!-- I -->
<g id="node9" class="node">
<title>I</title>
<ellipse fill="none" stroke="#000000" cx="27" cy="-190.6102" rx="27" ry="26.7407"/>
<text text-anchor="middle" x="27" y="-194.4102" font-family="Times,serif" font-size="14.00" fill="#000000">I</text>
<text text-anchor="middle" x="27" y="-179.4102" font-family="Times,serif" font-size="14.00" fill="#000000">10</text>
</g>
<!-- D&#45;&gt;I -->
<g id="edge8" class="edge">
<title>D&#45;&gt;I</title>
<path fill="none" stroke="#000000" d="M27,-253.4253C27,-245.3504 27,-236.3471 27,-227.7362"/>
<polygon fill="#000000" stroke="#000000" points="30.5001,-227.5161 27,-217.5162 23.5001,-227.5162 30.5001,-227.5161"/>
</g>
<!-- J -->
<g id="node10" class="node">
<title>J</title>
<ellipse fill="none" stroke="#000000" cx="99" cy="-190.6102" rx="27" ry="26.7407"/>
<text text-anchor="middle" x="99" y="-194.4102" font-family="Times,serif" font-size="14.00" fill="#000000">J</text>
<text text-anchor="middle" x="99" y="-179.4102" font-family="Times,serif" font-size="14.00" fill="#000000">4</text>
</g>
<!-- E&#45;&gt;J -->
<g id="edge9" class="edge">
<title>E&#45;&gt;J</title>
<path fill="none" stroke="#000000" d="M99,-253.4253C99,-245.3504 99,-236.3471 99,-227.7362"/>
<polygon fill="#000000" stroke="#000000" points="102.5001,-227.5161 99,-217.5162 95.5001,-227.5162 102.5001,-227.5161"/>
</g>
<!-- L -->
<g id="node12" class="node">
<title>L</title>
<ellipse fill="none" stroke="#000000" cx="171" cy="-190.6102" rx="27" ry="26.7407"/>
<text text-anchor="middle" x="171" y="-194.4102" font-family="Times,serif" font-size="14.00" fill="#000000">L</text>
<text text-anchor="middle" x="171" y="-179.4102" font-family="Times,serif" font-size="14.00" fill="#000000">6</text>
</g>
<!-- F&#45;&gt;L -->
<g id="edge10" class="edge">
<title>F&#45;&gt;L</title>
<path fill="none" stroke="#000000" d="M171,-253.4253C171,-245.3504 171,-236.3471 171,-227.7362"/>
<polygon fill="#000000" stroke="#000000" points="174.5001,-227.5161 171,-217.5162 167.5001,-227.5162 174.5001,-227.5161"/>
</g>
<!-- M -->
<g id="node13" class="node">
<title>M</title>
<ellipse fill="none" stroke="#000000" cx="243" cy="-190.6102" rx="27" ry="26.7407"/>
<text text-anchor="middle" x="243" y="-194.4102" font-family="Times,serif" font-size="14.00" fill="#000000">M</text>
<text text-anchor="middle" x="243" y="-179.4102" font-family="Times,serif" font-size="14.00" fill="#000000">4</text>
</g>
<!-- F&#45;&gt;M -->
<g id="edge11" class="edge">
<title>F&#45;&gt;M</title>
<path fill="none" stroke="#000000" d="M188.063,-259.0831C197.478,-247.3483 209.3088,-232.6025 219.5779,-219.8033"/>
<polygon fill="#000000" stroke="#000000" points="222.5314,-221.7149 226.0595,-211.7247 217.0715,-217.3343 222.5314,-221.7149"/>
</g>
<!-- N -->
<g id="node14" class="node">
<title>N</title>
<polygon fill="none" stroke="#000000" points="342,-209.6102 288,-209.6102 288,-171.6102 342,-171.6102 342,-209.6102"/>
<text text-anchor="middle" x="315" y="-194.4102" font-family="Times,serif" font-size="14.00" fill="#000000">N</text>
<text text-anchor="middle" x="315" y="-179.4102" font-family="Times,serif" font-size="14.00" fill="#000000">0</text>
</g>
<!-- G&#45;&gt;N -->
<g id="edge12" class="edge">
<title>G&#45;&gt;N</title>
<path fill="none" stroke="#000000" d="M340.972,-255.3527C336.4534,-244.0889 331.0949,-230.7313 326.4222,-219.0832"/>
<polygon fill="#000000" stroke="#000000" points="329.6635,-217.7622 322.6918,-209.7843 323.1667,-220.3685 329.6635,-217.7622"/>
</g>
<!-- O -->
<g id="node15" class="node">
<title>O</title>
<ellipse fill="none" stroke="#000000" cx="387" cy="-190.6102" rx="27" ry="26.7407"/>
<text text-anchor="middle" x="387" y="-194.4102" font-family="Times,serif" font-size="14.00" fill="#000000">O</text>
<text text-anchor="middle" x="387" y="-179.4102" font-family="Times,serif" font-size="14.00" fill="#000000">5</text>
</g>
<!-- G&#45;&gt;O -->
<g id="edge13" class="edge">
<title>G&#45;&gt;O</title>
<path fill="none" stroke="#000000" d="M361.028,-255.3527C364.7804,-245.9989 369.1119,-235.2012 373.149,-225.1376"/>
<polygon fill="#000000" stroke="#000000" points="376.426,-226.3692 376.9009,-215.785 369.9293,-223.7629 376.426,-226.3692"/>
</g>
<!-- P -->
<g id="node16" class="node">
<title>P</title>
<ellipse fill="none" stroke="#000000" cx="459" cy="-190.6102" rx="27" ry="26.7407"/>
<text text-anchor="middle" x="459" y="-194.4102" font-family="Times,serif" font-size="14.00" fill="#000000">P</text>
<text text-anchor="middle" x="459" y="-179.4102" font-family="Times,serif" font-size="14.00" fill="#000000">1</text>
</g>
<!-- H&#45;&gt;P -->
<g id="edge14" class="edge">
<title>H&#45;&gt;P</title>
<path fill="none" stroke="#000000" d="M459,-253.4253C459,-245.3504 459,-236.3471 459,-227.7362"/>
<polygon fill="#000000" stroke="#000000" points="462.5001,-227.5161 459,-217.5162 455.5001,-227.5162 462.5001,-227.5161"/>
</g>
<!-- Q -->
<g id="node17" class="node">
<title>Q</title>
<ellipse fill="none" stroke="#000000" cx="531" cy="-190.6102" rx="27" ry="26.7407"/>
<text text-anchor="middle" x="531" y="-194.4102" font-family="Times,serif" font-size="14.00" fill="#000000">Q</text>
<text text-anchor="middle" x="531" y="-179.4102" font-family="Times,serif" font-size="14.00" fill="#000000">9</text>
</g>
<!-- H&#45;&gt;Q -->
<g id="edge15" class="edge">
<title>H&#45;&gt;Q</title>
<path fill="none" stroke="#000000" d="M476.063,-259.0831C485.478,-247.3483 497.3088,-232.6025 507.5779,-219.8033"/>
<polygon fill="#000000" stroke="#000000" points="510.5314,-221.7149 514.0595,-211.7247 505.0715,-217.3343 510.5314,-221.7149"/>
</g>
<!-- K -->
<g id="node11" class="node">
<title>K</title>
<ellipse fill="none" stroke="#000000" cx="99" cy="-100.8701" rx="27" ry="26.7407"/>
<text text-anchor="middle" x="99" y="-104.6701" font-family="Times,serif" font-size="14.00" fill="#000000">K</text>
<text text-anchor="middle" x="99" y="-89.6701" font-family="Times,serif" font-size="14.00" fill="#000000">3</text>
</g>
<!-- J&#45;&gt;K -->
<g id="edge16" class="edge">
<title>J&#45;&gt;K</title>
<path fill="none" stroke="#000000" d="M99,-163.6852C99,-155.6102 99,-146.607 99,-137.9961"/>
<polygon fill="#000000" stroke="#000000" points="102.5001,-137.776 99,-127.776 95.5001,-137.7761 102.5001,-137.776"/>
</g>
<!-- R -->
<g id="node18" class="node">
<title>R</title>
<polygon fill="none" stroke="#000000" points="126,-38 72,-38 72,0 126,0 126,-38"/>
<text text-anchor="middle" x="99" y="-22.8" font-family="Times,serif" font-size="14.00" fill="#000000">R</text>
<text text-anchor="middle" x="99" y="-7.8" font-family="Times,serif" font-size="14.00" fill="#000000">0</text>
</g>
<!-- K&#45;&gt;R -->
<g id="edge17" class="edge">
<title>K&#45;&gt;R</title>
<path fill="none" stroke="#000000" d="M99,-73.6085C99,-65.4319 99,-56.433 99,-48.1402"/>
<polygon fill="#000000" stroke="#000000" points="102.5001,-48.1286 99,-38.1287 95.5001,-48.1287 102.5001,-48.1286"/>
</g>
</g>
</svg>
