<?xml version="1.0" encoding="UTF-8" standalone="no"?>
<!DOCTYPE svg PUBLIC "-//W3C//DTD SVG 1.1//EN"
 "http://www.w3.org/Graphics/SVG/1.1/DTD/svg11.dtd">
<!-- Generated by graphviz version 2.40.1 (20161225.0304)
 -->
<!-- Title: Sample Search Space with Costs Pages: 1 -->
<svg width="566pt" height="570pt"
 viewBox="0.00 0.00 566.00 569.70" xmlns="http://www.w3.org/2000/svg" xmlns:xlink="http://www.w3.org/1999/xlink">
<g id="graph0" class="graph" transform="scale(1 1) rotate(0) translate(4 565.7006)">
<title>Sample Search Space with Costs</title>
<polygon fill="#ffffff" stroke="transparent" points="-4,4 -4,-565.7006 562,-565.7006 562,4 -4,4"/>
<!-- A -->
<g id="node1" class="node">
<title>A</title>
<ellipse fill="none" stroke="#000000" cx="224" cy="-534.8305" rx="27" ry="26.7407"/>
<text text-anchor="middle" x="224" y="-538.6305" font-family="Times,serif" font-size="14.00" fill="#000000">A</text>
<text text-anchor="middle" x="224" y="-523.6305" font-family="Times,serif" font-size="14.00" fill="#000000">3</text>
</g>
<!-- B -->
<g id="node2" class="node">
<title>B</title>
<ellipse fill="none" stroke="#000000" cx="117" cy="-430.0904" rx="27" ry="26.7407"/>
<text text-anchor="middle" x="117" y="-433.8904" font-family="Times,serif" font-size="14.00" fill="#000000">B</text>
<text text-anchor="middle" x="117" y="-418.8904" font-family="Times,serif" font-size="14.00" fill="#000000">2</text>
</g>
<!-- A&#45;&gt;B -->
<g id="edge1" class="edge">
<title>A&#45;&gt;B</title>
<path fill="none" stroke="#000000" d="M204.3746,-515.6196C187.3308,-498.9357 162.495,-474.6246 143.6547,-456.1821"/>
<polygon fill="#000000" stroke="#000000" points="146.0955,-453.6736 136.501,-449.1796 141.1989,-458.676 146.0955,-453.6736"/>
<text text-anchor="middle" x="181" y="-478.7605" font-family="Times,serif" font-size="14.00" fill="#000000">1</text>
</g>
<!-- C -->
<g id="node3" class="node">
<title>C</title>
<ellipse fill="none" stroke="#000000" cx="351" cy="-430.0904" rx="27" ry="26.7407"/>
<text text-anchor="middle" x="351" y="-433.8904" font-family="Times,serif" font-size="14.00" fill="#000000">C</text>
<text text-anchor="middle" x="351" y="-418.8904" font-family="Times,serif" font-size="14.00" fill="#000000">3</text>
</g>
<!-- A&#45;&gt;C -->
<g id="edge2" class="edge">
<title>A&#45;&gt;C</title>
<path fill="none" stroke="#000000" d="M244.9715,-517.5348C266.0207,-500.175 298.6087,-473.2988 322.101,-453.9241"/>
<polygon fill="#000000" stroke="#000000" points="324.5095,-456.4746 329.9974,-447.4118 320.0557,-451.0742 324.5095,-456.4746"/>
<text text-anchor="middle" x="300" y="-478.7605" font-family="Times,serif" font-size="14.00" fill="#000000">1</text>
</g>
<!-- D -->
<g id="node4" class="node">
<title>D</title>
<ellipse fill="none" stroke="#000000" cx="27" cy="-325.3503" rx="27" ry="26.7407"/>
<text text-anchor="middle" x="27" y="-329.1503" font-family="Times,serif" font-size="14.00" fill="#000000">D</text>
<text text-anchor="middle" x="27" y="-314.1503" font-family="Times,serif" font-size="14.00" fill="#000000">3</text>
</g>
<!-- B&#45;&gt;D -->
<g id="edge3" class="edge">
<title>B&#45;&gt;D</title>
<path fill="none" stroke="#000000" d="M99.4334,-409.6468C85.7701,-393.7457 66.6504,-371.4946 51.4854,-353.8459"/>
<polygon fill="#000000" stroke="#000000" points="54.0017,-351.4039 44.8298,-346.1003 48.6925,-355.9659 54.0017,-351.4039"/>
<text text-anchor="middle" x="82" y="-374.0203" font-family="Times,serif" font-size="14.00" fill="#000000">1</text>
</g>
<!-- E -->
<g id="node5" class="node">
<title>E</title>
<ellipse fill="none" stroke="#000000" cx="99" cy="-325.3503" rx="27" ry="26.7407"/>
<text text-anchor="middle" x="99" y="-329.1503" font-family="Times,serif" font-size="14.00" fill="#000000">E</text>
<text text-anchor="middle" x="99" y="-314.1503" font-family="Times,serif" font-size="14.00" fill="#000000">1</text>
</g>
<!-- B&#45;&gt;E -->
<g id="edge4" class="edge">
<title>B&#45;&gt;E</title>
<path fill="none" stroke="#000000" d="M112.4113,-403.389C110.2532,-390.8316 107.6456,-375.6582 105.3057,-362.0423"/>
<polygon fill="#000000" stroke="#000000" points="108.7236,-361.2656 103.5804,-352.0029 101.8247,-362.4512 108.7236,-361.2656"/>
<text text-anchor="middle" x="114" y="-374.0203" font-family="Times,serif" font-size="14.00" fill="#000000">1</text>
</g>
<!-- F -->
<g id="node6" class="node">
<title>F</title>
<ellipse fill="none" stroke="#000000" cx="171" cy="-325.3503" rx="27" ry="26.7407"/>
<text text-anchor="middle" x="171" y="-329.1503" font-family="Times,serif" font-size="14.00" fill="#000000">F</text>
<text text-anchor="middle" x="171" y="-314.1503" font-family="Times,serif" font-size="14.00" fill="#000000">7</text>
</g>
<!-- B&#45;&gt;F -->
<g id="edge5" class="edge">
<title>B&#45;&gt;F</title>
<path fill="none" stroke="#000000" d="M129.3887,-406.0609C136.6604,-391.9565 145.9555,-373.9274 153.9154,-358.4882"/>
<polygon fill="#000000" stroke="#000000" points="157.1974,-359.7601 158.669,-349.268 150.9756,-356.5524 157.1974,-359.7601"/>
<text text-anchor="middle" x="152" y="-374.0203" font-family="Times,serif" font-size="14.00" fill="#000000">1</text>
</g>
<!-- G -->
<g id="node7" class="node">
<title>G</title>
<ellipse fill="none" stroke="#000000" cx="351" cy="-325.3503" rx="27" ry="26.7407"/>
<text text-anchor="middle" x="351" y="-329.1503" font-family="Times,serif" font-size="14.00" fill="#000000">G</text>
<text text-anchor="middle" x="351" y="-314.1503" font-family="Times,serif" font-size="14.00" fill="#000000">6</text>
</g>
<!-- C&#45;&gt;G -->
<g id="edge6" class="edge">
<title>C&#45;&gt;G</title>
<path fill="none" stroke="#000000" d="M351,-403.1172C351,-390.7778 351,-375.9563 351,-362.5774"/>
<polygon fill="#000000" stroke="#000000" points="354.5001,-362.232 351,-352.2321 347.5001,-362.2321 354.5001,-362.232"/>
<text text-anchor="middle" x="355" y="-374.0203" font-family="Times,serif" font-size="14.00" fill="#000000">1</text>
</g>
<!-- H -->
<g id="node8" class="node">
<title>H</title>
<ellipse fill="none" stroke="#000000" cx="459" cy="-325.3503" rx="27" ry="26.7407"/>
<text text-anchor="middle" x="459" y="-329.1503" font-family="Times,serif" font-size="14.00" fill="#000000">H</text>
<text text-anchor="middle" x="459" y="-314.1503" font-family="Times,serif" font-size="14.00" fill="#000000">2</text>
</g>
<!-- C&#45;&gt;H -->
<g id="edge7" class="edge">
<title>C&#45;&gt;H</title>
<path fill="none" stroke="#000000" d="M370.558,-411.1228C387.8375,-394.3648 413.1922,-369.7754 432.3289,-351.2164"/>
<polygon fill="#000000" stroke="#000000" points="434.8456,-353.6513 439.5875,-344.1768 429.9722,-348.6262 434.8456,-353.6513"/>
<text text-anchor="middle" x="415" y="-374.0203" font-family="Times,serif" font-size="14.00" fill="#000000">1</text>
</g>
<!-- I -->
<g id="node9" class="node">
<title>I</title>
<ellipse fill="none" stroke="#000000" cx="27" cy="-220.6102" rx="27" ry="26.7407"/>
<text text-anchor="middle" x="27" y="-224.4102" font-family="Times,serif" font-size="14.00" fill="#000000">I</text>
<text text-anchor="middle" x="27" y="-209.4102" font-family="Times,serif" font-size="14.00" fill="#000000">10</text>
</g>
<!-- D&#45;&gt;I -->
<g id="edge8" class="edge">
<title>D&#45;&gt;I</title>
<path fill="none" stroke="#000000" d="M27,-298.3771C27,-286.0377 27,-271.2162 27,-257.8373"/>
<polygon fill="#000000" stroke="#000000" points="30.5001,-257.4919 27,-247.4919 23.5001,-257.492 30.5001,-257.4919"/>
<text text-anchor="middle" x="31" y="-269.2802" font-family="Times,serif" font-size="14.00" fill="#000000">1</text>
</g>
<!-- J -->
<g id="node10" class="node">
<title>J</title>
<ellipse fill="none" stroke="#000000" cx="99" cy="-220.6102" rx="27" ry="26.7407"/>
<text text-anchor="middle" x="99" y="-224.4102" font-family="Times,serif" font-size="14.00" fill="#000000">J</text>
<text text-anchor="middle" x="99" y="-209.4102" font-family="Times,serif" font-size="14.00" fill="#000000">4</text>
</g>
<!-- E&#45;&gt;J -->
<g id="edge9" class="edge">
<title>E&#45;&gt;J</title>
<path fill="none" stroke="#000000" d="M99,-298.3771C99,-286.0377 99,-271.2162 99,-257.8373"/>
<polygon fill="#000000" stroke="#000000" points="102.5001,-257.4919 99,-247.4919 95.5001,-257.492 102.5001,-257.4919"/>
<text text-anchor="middle" x="103" y="-269.2802" font-family="Times,serif" font-size="14.00" fill="#000000">1</text>
</g>
<!-- L -->
<g id="node12" class="node">
<title>L</title>
<ellipse fill="none" stroke="#000000" cx="171" cy="-220.6102" rx="27" ry="26.7407"/>
<text text-anchor="middle" x="171" y="-224.4102" font-family="Times,serif" font-size="14.00" fill="#000000">L</text>
<text text-anchor="middle" x="171" y="-209.4102" font-family="Times,serif" font-size="14.00" fill="#000000">6</text>
</g>
<!-- F&#45;&gt;L -->
<g id="edge10" class="edge">
<title>F&#45;&gt;L</title>
<path fill="none" stroke="#000000" d="M171,-298.3771C171,-286.0377 171,-271.2162 171,-257.8373"/>
<polygon fill="#000000" stroke="#000000" points="174.5001,-257.4919 171,-247.4919 167.5001,-257.492 174.5001,-257.4919"/>
<text text-anchor="middle" x="175" y="-269.2802" font-family="Times,serif" font-size="14.00" fill="#000000">1</text>
</g>
<!-- M -->
<g id="node13" class="node">
<title>M</title>
<ellipse fill="none" stroke="#000000" cx="243" cy="-220.6102" rx="27" ry="26.7407"/>
<text text-anchor="middle" x="243" y="-224.4102" font-family="Times,serif" font-size="14.00" fill="#000000">M</text>
<text text-anchor="middle" x="243" y="-209.4102" font-family="Times,serif" font-size="14.00" fill="#000000">4</text>
</g>
<!-- F&#45;&gt;M -->
<g id="edge11" class="edge">
<title>F&#45;&gt;M</title>
<path fill="none" stroke="#000000" d="M186.2693,-303.1376C196.6743,-288.0013 210.5841,-267.7664 222.0259,-251.1217"/>
<polygon fill="#000000" stroke="#000000" points="224.9721,-253.0143 227.7527,-242.7908 219.2035,-249.0489 224.9721,-253.0143"/>
<text text-anchor="middle" x="216" y="-269.2802" font-family="Times,serif" font-size="14.00" fill="#000000">1</text>
</g>
<!-- N -->
<g id="node14" class="node">
<title>N</title>
<polygon fill="none" stroke="#000000" points="342,-239.6102 288,-239.6102 288,-201.6102 342,-201.6102 342,-239.6102"/>
<text text-anchor="middle" x="315" y="-224.4102" font-family="Times,serif" font-size="14.00" fill="#000000">N</text>
<text text-anchor="middle" x="315" y="-209.4102" font-family="Times,serif" font-size="14.00" fill="#000000">0</text>
</g>
<!-- G&#45;&gt;N -->
<g id="edge12" class="edge">
<title>G&#45;&gt;N</title>
<path fill="none" stroke="#000000" d="M342.1934,-299.728C336.9683,-284.5258 330.3304,-265.213 324.9208,-249.4743"/>
<polygon fill="#000000" stroke="#000000" points="328.131,-248.0462 321.5706,-239.7269 321.5111,-250.3216 328.131,-248.0462"/>
<text text-anchor="middle" x="340" y="-269.2802" font-family="Times,serif" font-size="14.00" fill="#000000">1</text>
</g>
<!-- O -->
<g id="node15" class="node">
<title>O</title>
<ellipse fill="none" stroke="#000000" cx="387" cy="-220.6102" rx="27" ry="26.7407"/>
<text text-anchor="middle" x="387" y="-224.4102" font-family="Times,serif" font-size="14.00" fill="#000000">O</text>
<text text-anchor="middle" x="387" y="-209.4102" font-family="Times,serif" font-size="14.00" fill="#000000">5</text>
</g>
<!-- G&#45;&gt;O -->
<g id="edge13" class="edge">
<title>G&#45;&gt;O</title>
<path fill="none" stroke="#000000" d="M359.8066,-299.728C364.3393,-286.5404 369.9351,-270.2597 374.8699,-255.902"/>
<polygon fill="#000000" stroke="#000000" points="378.219,-256.9257 378.1596,-246.331 371.5991,-254.6503 378.219,-256.9257"/>
<text text-anchor="middle" x="376" y="-269.2802" font-family="Times,serif" font-size="14.00" fill="#000000">1</text>
</g>
<!-- P -->
<g id="node16" class="node">
<title>P</title>
<ellipse fill="none" stroke="#000000" cx="459" cy="-220.6102" rx="27" ry="26.7407"/>
<text text-anchor="middle" x="459" y="-224.4102" font-family="Times,serif" font-size="14.00" fill="#000000">P</text>
<text text-anchor="middle" x="459" y="-209.4102" font-family="Times,serif" font-size="14.00" fill="#000000">1</text>
</g>
<!-- H&#45;&gt;P -->
<g id="edge14" class="edge">
<title>H&#45;&gt;P</title>
<path fill="none" stroke="#000000" d="M459,-298.3771C459,-286.0377 459,-271.2162 459,-257.8373"/>
<polygon fill="#000000" stroke="#000000" points="462.5001,-257.4919 459,-247.4919 455.5001,-257.492 462.5001,-257.4919"/>
<text text-anchor="middle" x="463" y="-269.2802" font-family="Times,serif" font-size="14.00" fill="#000000">1</text>
</g>
<!-- Q -->
<g id="node17" class="node">
<title>Q</title>
<ellipse fill="none" stroke="#000000" cx="531" cy="-220.6102" rx="27" ry="26.7407"/>
<text text-anchor="middle" x="531" y="-224.4102" font-family="Times,serif" font-size="14.00" fill="#000000">Q</text>
<text text-anchor="middle" x="531" y="-209.4102" font-family="Times,serif" font-size="14.00" fill="#000000">9</text>
</g>
<!-- H&#45;&gt;Q -->
<g id="edge15" class="edge">
<title>H&#45;&gt;Q</title>
<path fill="none" stroke="#000000" d="M474.2693,-303.1376C484.6743,-288.0013 498.5841,-267.7664 510.0259,-251.1217"/>
<polygon fill="#000000" stroke="#000000" points="512.9721,-253.0143 515.7527,-242.7908 507.2035,-249.0489 512.9721,-253.0143"/>
<text text-anchor="middle" x="503" y="-269.2802" font-family="Times,serif" font-size="14.00" fill="#000000">1</text>
</g>
<!-- K -->
<g id="node11" class="node">
<title>K</title>
<ellipse fill="none" stroke="#000000" cx="99" cy="-115.8701" rx="27" ry="26.7407"/>
<text text-anchor="middle" x="99" y="-119.6701" font-family="Times,serif" font-size="14.00" fill="#000000">K</text>
<text text-anchor="middle" x="99" y="-104.6701" font-family="Times,serif" font-size="14.00" fill="#000000">3</text>
</g>
<!-- J&#45;&gt;K -->
<g id="edge16" class="edge">
<title>J&#45;&gt;K</title>
<path fill="none" stroke="#000000" d="M99,-193.637C99,-181.2976 99,-166.4761 99,-153.0972"/>
<polygon fill="#000000" stroke="#000000" points="102.5001,-152.7518 99,-142.7518 95.5001,-152.7519 102.5001,-152.7518"/>
<text text-anchor="middle" x="103" y="-164.5401" font-family="Times,serif" font-size="14.00" fill="#000000">1</text>
</g>
<!-- R -->
<g id="node18" class="node">
<title>R</title>
<polygon fill="none" stroke="#000000" points="126,-38 72,-38 72,0 126,0 126,-38"/>
<text text-anchor="middle" x="99" y="-22.8" font-family="Times,serif" font-size="14.00" fill="#000000">R</text>
<text text-anchor="middle" x="99" y="-7.8" font-family="Times,serif" font-size="14.00" fill="#000000">0</text>
</g>
<!-- K&#45;&gt;R -->
<g id="edge17" class="edge">
<title>K&#45;&gt;R</title>
<path fill="none" stroke="#000000" d="M99,-88.8863C99,-76.2903 99,-61.2686 99,-48.3857"/>
<polygon fill="#000000" stroke="#000000" points="102.5001,-48.1673 99,-38.1673 95.5001,-48.1674 102.5001,-48.1673"/>
<text text-anchor="middle" x="103" y="-59.8" font-family="Times,serif" font-size="14.00" fill="#000000">1</text>
</g>
</g>
</svg>
